<?xml version="1.0" encoding="UTF-8"?>
<svg id="Layer_2" data-name="Layer 2" xmlns="http://www.w3.org/2000/svg" viewBox="0 0 435.8 212.6">
  <defs>
    <style>
      .cls-1 {
        stroke-width: 0px;
      }
    </style>
  </defs>
  <g id="Layer_1-2" data-name="Layer 1">
    <path class="cls-1" d="M211.39,90.52h-120.63v30.13h120.69v90.73h-90.42v-29.87h60.05v-30.32H60.48V60.54h150.91v29.98Z"/>
    <path class="cls-1" d="M29.93,29.95v151.31h60.37v30.09H0V0h211.46v29.95H29.93Z"/>
    <path class="cls-1" d="M300.95,178.89v-6.89c2.04-.16,3.89-.3,6-.46.14-2.18.28-4.26.41-6.28,7.66-1.17,7.98-1.73,5.16-9.11-2.74-7.19-5.52-14.36-8.53-22.2,3.07,0,5.73-.19,8.34.12.75.09,1.62,1.5,1.95,2.47,1.66,4.89,3.17,9.83,4.95,15.47,1.56-5.21,3.08-9.62,4.18-14.14.74-3.04,2.11-4.51,5.36-4.01,1.37.21,2.81.04,4.74.04-.39,1.5-.6,2.59-.95,3.63-2.66,7.86-5.52,15.65-7.98,23.57-2.21,7.1-5.72,12.12-14.51,10.7-.13,2.52-.25,4.7-.37,7.12h-8.75Z"/>
    <path class="cls-1" d="M342.2,199.72h-19.76c.29,5.25,5.2,8.32,8.78,5.31,3.42-2.88,6.79-1.55,10.4-1.86-1.99,7.17-9.39,10.71-17.7,8.83-7.68-1.74-12.08-9.25-10.56-18.01,1.3-7.47,8.3-12.65,15.85-11.74,8.45,1.02,13.6,7.73,12.98,17.47ZM333.15,194.08c-.51-3.47-2.28-5.49-5.59-5.39-3.21.1-5.03,2.04-5.3,5.39h10.89Z"/>
    <path class="cls-1" d="M435.79,199.79h-20.03c1.18,6.1,5.52,7.55,10.26,4.63,2.4-1.47,5.86-1.21,9.23-1.79-1.86,7.53-8.96,11.06-17.36,9.43-7.36-1.43-12.33-8.77-11.21-16.6,1.21-8.52,7.64-13.95,15.67-13.25,8.59.75,13.76,7.24,13.45,17.58ZM415.9,194.12h10.66c-.16-3.38-1.94-5.12-5-5.46-3.04-.34-4.98,1.61-5.66,5.46Z"/>
    <path class="cls-1" d="M345.77,183.15h8.17c.17,1.01.33,1.92.5,2.92.38-.12.8-.12,1-.33,3.41-3.59,7.51-4.54,12.01-2.67,4.57,1.9,5.83,5.95,5.87,10.49.05,5.8.01,11.6.01,17.69h-9.18c0-5.45.09-10.99-.03-16.52-.08-3.87-3.05-6.2-6.08-4.48-1.54.87-2.92,3.18-3.13,4.98-.47,4.11-.16,8.3-.18,12.45,0,1.16-.1,2.31-.16,3.65h-8.81v-28.2Z"/>
    <path class="cls-1" d="M240.47,202.36c2.34,0,4.36-.15,6.33.07.86.1,1.96.76,2.38,1.5,1.73,3.05,4.45,2.88,7.17,2.29.81-.18,1.97-1.4,1.94-2.1-.04-.92-.91-2.29-1.75-2.6-2.09-.78-4.35-1.11-6.55-1.56-6.43-1.3-8.8-3.53-8.84-8.35-.04-4.97,2.85-8.16,9.13-8.96,3.18-.4,6.62.04,9.77.79,3.66.87,5.54,3.76,6.23,7.94-3.62-.58-7.36,1.65-10.04-2.53-.52-.81-2.9-.78-4.32-.55-.94.15-1.72,1.34-2.57,2.06.77.79,1.4,2,2.32,2.28,2.49.75,5.11,1.05,7.65,1.63,5.11,1.15,7.65,3.94,7.73,8.36.09,4.66-2.33,8.32-7.34,9.04-4.21.6-8.76.36-12.91-.57-3.71-.84-6.15-3.83-6.33-8.73Z"/>
    <path class="cls-1" d="M297.5,193.27c-2.2,0-4.12.22-5.94-.08-1.18-.2-2.56-.91-3.27-1.84-2.58-3.38-7.33-3.19-8.86.77-.86,2.23-1.02,4.87-.91,7.3.14,2.96,1.25,5.66,4.74,6.22,3.53.56,5.27-1.44,6.12-4.71h8.07c.24,6.47-4.64,11.03-12.29,11.63-8.05.63-14.96-5.04-15.93-13.07-1.05-8.66,4-15.54,12.47-16.99,7.85-1.34,14.13,2.72,15.81,10.79Z"/>
    <path class="cls-1" d="M396.58,200.88h7.76c.65,6.06-4.1,10.73-11.65,11.61-8,.93-15.4-4.73-16.38-12.53-1.17-9.34,4-16.36,13-17.61,7.52-1.05,13.87,3.29,15.08,10.81-3.49-.58-7.23,2.09-9.92-2.66-1.52-2.67-6.29-1.92-7.79,1.07-1.91,3.8-2.04,7.93.13,11.6.77,1.3,3.29,2.61,4.64,2.29,2.07-.48,3.81-2.36,5.69-3.64-.18-.32-.37-.63-.55-.95Z"/>
    <path class="cls-1" d="M268.89,144.06c-2.37,0-4.71.13-7.03-.08-.71-.06-1.27-1.16-2.01-1.58-1.62-.91-3.38-2.43-4.97-2.3-1.47.12-3.72,1.86-4.01,3.23-.64,3.01-.77,6.36-.08,9.34.35,1.51,2.74,3.02,4.52,3.63,2.25.76,3.94-.67,5.11-2.83.48-.88,1.75-1.68,2.76-1.84,1.84-.29,3.75-.08,5.6-.08.72,6.09-3.95,10.82-11.28,11.75-8.56,1.08-15.88-4.85-16.81-13.64-.91-8.58,4.75-15.5,13.51-16.49,7.7-.87,13.82,3.53,14.69,10.91Z"/>
    <path class="cls-1" d="M301.89,134.12v5.08c-1.6.17-3.08.33-4.9.53,0,4.62-.3,9.13.19,13.56.14,1.24,2.57,2.22,4.47,2.7.1.21.34.46.28.61-.7,2.07,2.2,5.6-2.37,6.11-6.46.73-10.66-1.21-11.12-5.53-.44-4.12-.25-8.3-.32-12.46-.03-1.53,0-3.06,0-4.77-1.33-.31-2.44-.57-3.74-.87v-4.89c1.16-.21,2.19-.39,3.69-.66v-8.47h8.8v8.48c1.77.21,3.26.38,5.02.59Z"/>
    <path class="cls-1" d="M309.68,183.03v28.3h-8.91c0-8.99-.03-17.77.07-26.54,0-.59,1.04-1.63,1.67-1.68,2.33-.2,4.68-.08,7.17-.08Z"/>
    <path class="cls-1" d="M272.65,134.03h8.46v28.08h-8.46v-28.08Z"/>
    <path class="cls-1" d="M281.22,122.92v6.74h-8.59v-6.74h8.59Z"/>
  </g>
</svg>