<svg width="15" height="19" viewBox="0 0 15 19" fill="none" xmlns="http://www.w3.org/2000/svg">
<path d="M7.50187 0C11.6364 0 15 3.36363 15 7.49813C15 9.20415 14.4409 10.8108 13.3832 12.1445C12.0136 13.8713 8.03082 17.9714 7.86197 18.1451L7.50192 18.5155L7.14182 18.1451C6.97287 17.9714 2.98889 13.8704 1.61911 12.143C0.562321 10.8104 0.00374087 9.20425 0.00374087 7.49813C0.00374087 3.36363 3.36737 0 7.50187 0Z" fill="#FF5100"/>
<path d="M7.4991 2.97656C9.94646 2.97656 11.9375 4.9676 11.9375 7.41496C11.9375 9.86233 9.94641 11.8534 7.4991 11.8534C5.05179 11.8534 3.0607 9.86228 3.0607 7.41496C3.0607 4.96765 5.05174 2.97656 7.4991 2.97656ZM7.4991 10.8489C9.3926 10.8489 10.933 9.30842 10.933 7.41496C10.933 5.52146 9.39255 3.98102 7.4991 3.98102C5.60565 3.98102 4.06521 5.52151 4.06516 7.41496C4.06516 9.30847 5.6056 10.8489 7.4991 10.8489Z" fill="white"/>
</svg>
