<svg xmlns="http://www.w3.org/2000/svg" xmlns:xlink="http://www.w3.org/1999/xlink" width="293.254" height="50.801" viewBox="0 0 293.254 50.801">
  <defs>
    <clipPath id="clip-path">
      <rect id="Rectangle_4278" data-name="Rectangle 4278" width="25.212" height="46.301" fill="none"/>
    </clipPath>
  </defs>
  <g id="logo" transform="translate(-1288.746 -10)">
    <line id="Line_482" data-name="Line 482" y2="39" transform="translate(1323.5 17.5)" fill="none" stroke="#61bd8e" stroke-width="1"/>
    <g id="Group_33468" data-name="Group 33468" transform="translate(1288.746 14.5)">
      <path id="Path_193784" data-name="Path 193784" d="M44.417,73.124,47.3,77.446l1.928-2.481L46.8,70.049Z" transform="translate(-25.133 -39.636)" fill="#216678"/>
      <path id="Path_193785" data-name="Path 193785" d="M0,86.076v5.045l5.154-5.069.428-6.841Z" transform="translate(0 -44.82)" fill="#686a46"/>
      <path id="Path_193786" data-name="Path 193786" d="M24.033,60.525l.308,7.412,6.109-5.952-3.438-5.16Z" transform="translate(-13.599 -32.154)" fill="#299781"/>
      <path id="Path_193787" data-name="Path 193787" d="M34.264,47.208,30.9,51.384l3.438,5.16L37.4,53.557Z" transform="translate(-17.482 -26.712)" fill="#6d0917"/>
      <path id="Path_193788" data-name="Path 193788" d="M45.878,56.872l1.754,3.568,3.539-4.55-1.388-2.823Z" transform="translate(-25.959 -30.027)" fill="#308bb0"/>
      <path id="Path_193789" data-name="Path 193789" d="M41.247,68.475,43.635,65.4l-1.754-3.568-3.066,2.986Z" transform="translate(-21.963 -34.987)" fill="#1c1012"/>
      <path id="Path_193790" data-name="Path 193790" d="M16.81,22.691H14.359l-1.5,24.539,4.853-6.02Z" transform="translate(-7.274 -12.839)" fill="#5bb179"/>
      <path id="Path_193791" data-name="Path 193791" d="M12.3,71.366l-.428,6.841,5.589-5.448-.308-7.413Z" transform="translate(-6.717 -36.975)" fill="#0e3833"/>
      <g id="Group_33467" data-name="Group 33467" transform="translate(0 0)">
        <g id="Group_33466" data-name="Group 33466" clip-path="url(#clip-path)">
          <path id="Path_193792" data-name="Path 193792" d="M16.728,2.1,15.711,0s-2.175,3.327-2.175,4.619a6.3,6.3,0,0,0,.965,3.4h2.984L18.013,4.8H16.1Z" transform="translate(-7.659 0)" fill="#6d0917"/>
        </g>
      </g>
    </g>
    <g id="Group_35780" data-name="Group 35780" transform="translate(20266.813 7619.709)">
      <g id="Group_35779" data-name="Group 35779" transform="translate(-18930.77 -7602.593)">
        <path id="Path_410346" data-name="Path 410346" d="M36.523,47.8h.606a.658.658,0,0,0,.559-.216,1.311,1.311,0,0,0,.163-.755v-5.3h1.019v5.427a3.159,3.159,0,0,1-.145,1.071,1,1,0,0,1-.479.563,1.99,1.99,0,0,1-.922.176h-.8Z" transform="translate(-36.426 -7.946)" fill="#231f20"/>
        <path id="Path_410347" data-name="Path 410347" d="M43.62,47.8v.962H39.507V41.521H43.55v.961H40.527v2h2.68v.91h-2.68V47.8Z" transform="translate(-35.677 -7.946)" fill="#231f20"/>
        <path id="Path_410348" data-name="Path 410348" d="M47.528,45.056a1.528,1.528,0,0,1-.95.693l1.258,3.008H46.79l-1.178-2.926h-.95v2.926H43.644V41.521h2.187a1.96,1.96,0,0,1,1.512.532,2.333,2.333,0,0,1,.493,1.628,2.672,2.672,0,0,1-.308,1.375m-2.866-.1h.923a1.238,1.238,0,0,0,.935-.31,1.351,1.351,0,0,0,.3-.962,1.324,1.324,0,0,0-.3-.95,1.237,1.237,0,0,0-.931-.31h-.923Z" transform="translate(-34.637 -7.946)" fill="#231f20"/>
        <path id="Path_410349" data-name="Path 410349" d="M48.458,48.178a2.884,2.884,0,0,1-.6-2.016V41.521h1.02v4.641a2.145,2.145,0,0,0,.334,1.35,1.344,1.344,0,0,0,1.1.408,1.32,1.32,0,0,0,1.09-.414,2.144,2.144,0,0,0,.334-1.344V41.521h1.019v4.641a2.884,2.884,0,0,1-.6,2.016,2.987,2.987,0,0,1-3.7,0" transform="translate(-33.578 -7.946)" fill="#231f20"/>
        <path id="Path_410350" data-name="Path 410350" d="M53.238,48.328a2.17,2.17,0,0,1-.567-1.674,4.012,4.012,0,0,1,.018-.444h.949c-.011.164-.018.282-.018.35a1.554,1.554,0,0,0,.313,1.07,1.114,1.114,0,0,0,.873.348,1.328,1.328,0,0,0,.875-.254.859.859,0,0,0,.3-.7,1.436,1.436,0,0,0-.11-.589,1.323,1.323,0,0,0-.385-.476,4.644,4.644,0,0,0-.8-.5,7.811,7.811,0,0,1-1.218-.746,1.733,1.733,0,0,1-.751-1.539,1.63,1.63,0,0,1,.242-.87,1.66,1.66,0,0,1,.712-.619,2.575,2.575,0,0,1,1.129-.228,1.991,1.991,0,0,1,1.671.616,2.5,2.5,0,0,1,.422,1.689h-.922a1.789,1.789,0,0,0-.238-1.064,1.011,1.011,0,0,0-.9-.373,1.186,1.186,0,0,0-.808.248.841.841,0,0,0-.28.663.933.933,0,0,0,.272.666,3.729,3.729,0,0,0,.967.637,7.352,7.352,0,0,1,1.244.753,2.013,2.013,0,0,1,.6.73,2.332,2.332,0,0,1,.176.967,1.684,1.684,0,0,1-.579,1.359,2.491,2.491,0,0,1-1.653.491,2.2,2.2,0,0,1-1.542-.517" transform="translate(-32.367 -7.961)" fill="#231f20"/>
        <path id="Path_410351" data-name="Path 410351" d="M60.564,47.031H58.007l-.519,1.727H56.382l2.408-7.236h.992l2.409,7.236H61.074Zm-.263-.878-1.011-3.4-1.02,3.4Z" transform="translate(-31.435 -7.946)" fill="#231f20"/>
        <path id="Path_410352" data-name="Path 410352" d="M61.558,41.521h1.019V47.8h2.936v.961H61.558Z" transform="translate(-30.134 -7.946)" fill="#231f20"/>
        <path id="Path_410353" data-name="Path 410353" d="M69.562,47.8v.962H65.449V41.521h4.043v.961H66.469v2h2.68v.91h-2.68V47.8Z" transform="translate(-29.156 -7.946)" fill="#231f20"/>
        <path id="Path_410354" data-name="Path 410354" d="M76.009,41.521v7.236h-.976V42.9l-1.818,4.332h-.835L70.552,42.9v5.861h-.967V41.521h1.424l1.784,4.4,1.792-4.4Z" transform="translate(-28.116 -7.946)" fill="#231f20"/>
        <path id="Path_410355" data-name="Path 410355" d="M78.485,48.114a3.564,3.564,0,0,1-.6-2.29V44.459a3.521,3.521,0,0,1,.6-2.28,2.316,2.316,0,0,1,1.872-.708,2.394,2.394,0,0,1,1.854.662,2.919,2.919,0,0,1,.606,2.027H81.8q0-1.789-1.442-1.789a1.281,1.281,0,0,0-1.094.47,2.511,2.511,0,0,0-.357,1.5v1.593a2.53,2.53,0,0,0,.357,1.514,1.281,1.281,0,0,0,1.094.471,1.321,1.321,0,0,0,1.081-.439,2.124,2.124,0,0,0,.36-1.36h1.019a2.96,2.96,0,0,1-.606,2.037,2.37,2.37,0,0,1-1.854.672,2.3,2.3,0,0,1-1.872-.718" transform="translate(-26.03 -7.959)" fill="#231f20"/>
        <path id="Path_410356" data-name="Path 410356" d="M86.888,47.8v.962H82.775V41.521h4.043v.961H83.795v2h2.68v.91h-2.68V47.8Z" transform="translate(-24.803 -7.946)" fill="#231f20"/>
        <path id="Path_410357" data-name="Path 410357" d="M91.877,41.521v7.236H90.629l-2.768-5.965v5.965h-.95V41.521h1.258l2.768,5.985V41.521Z" transform="translate(-23.762 -7.946)" fill="#231f20"/>
        <path id="Path_410358" data-name="Path 410358" d="M96.147,42.482H94.4v6.277h-1.02V42.482H91.638v-.961h4.509Z" transform="translate(-22.574 -7.946)" fill="#231f20"/>
        <path id="Path_410359" data-name="Path 410359" d="M100.112,47.8v.962H96V41.521h4.043v.961H97.019v2H99.7v.91h-2.68V47.8Z" transform="translate(-21.478 -7.946)" fill="#231f20"/>
        <path id="Path_410360" data-name="Path 410360" d="M104.02,45.056a1.528,1.528,0,0,1-.95.693l1.258,3.008h-1.046L102.1,45.832h-.95v2.926h-1.019V41.521h2.187a1.96,1.96,0,0,1,1.512.532,2.333,2.333,0,0,1,.493,1.628,2.672,2.672,0,0,1-.308,1.375m-2.866-.1h.923a1.238,1.238,0,0,0,.935-.31,1.351,1.351,0,0,0,.3-.962,1.324,1.324,0,0,0-.3-.95,1.237,1.237,0,0,0-.931-.31h-.923Z" transform="translate(-20.439 -7.946)" fill="#231f20"/>
        <path id="Path_410361" data-name="Path 410361" d="M107.643,42.482V44.54h2.488v.91h-2.488v3.309h-1.019V41.521h3.858v.961Z" transform="translate(-18.809 -7.946)" fill="#231f20"/>
        <path id="Path_410362" data-name="Path 410362" d="M110.869,48.114a3.522,3.522,0,0,1-.606-2.29V44.46a3.485,3.485,0,0,1,.606-2.281,2.873,2.873,0,0,1,3.775,0,3.508,3.508,0,0,1,.6,2.281v1.364a3.521,3.521,0,0,1-.607,2.29,2.829,2.829,0,0,1-3.77,0m3-.656a2.539,2.539,0,0,0,.36-1.52V44.346a2.49,2.49,0,0,0-.36-1.5,1.543,1.543,0,0,0-2.219,0,2.471,2.471,0,0,0-.364,1.5v1.592a2.519,2.519,0,0,0,.364,1.52,1.532,1.532,0,0,0,2.219,0" transform="translate(-17.893 -7.959)" fill="#231f20"/>
        <path id="Path_410363" data-name="Path 410363" d="M119.1,45.056a1.522,1.522,0,0,1-.948.693l1.256,3.008h-1.046l-1.177-2.926h-.949v2.926h-1.019V41.521h2.187a1.964,1.964,0,0,1,1.513.532,2.339,2.339,0,0,1,.491,1.628,2.672,2.672,0,0,1-.308,1.375m-2.864-.1h.923a1.243,1.243,0,0,0,.936-.31,1.356,1.356,0,0,0,.294-.962,1.324,1.324,0,0,0-.3-.95,1.24,1.24,0,0,0-.931-.31h-.923Z" transform="translate(-16.647 -7.946)" fill="#231f20"/>
        <path id="Path_410364" data-name="Path 410364" d="M121.947,48.178a2.878,2.878,0,0,1-.6-2.016V41.521h1.02v4.641a2.145,2.145,0,0,0,.334,1.35,1.34,1.34,0,0,0,1.1.408,1.323,1.323,0,0,0,1.091-.414,2.152,2.152,0,0,0,.333-1.344V41.521h1.02v4.641a2.884,2.884,0,0,1-.6,2.016,2.985,2.985,0,0,1-3.7,0" transform="translate(-15.107 -7.946)" fill="#231f20"/>
        <path id="Path_410365" data-name="Path 410365" d="M130.247,45.056a1.524,1.524,0,0,1-.95.693l1.258,3.008h-1.046l-1.178-2.926h-.949v2.926h-1.019V41.521h2.187a1.961,1.961,0,0,1,1.512.532,2.333,2.333,0,0,1,.492,1.628,2.672,2.672,0,0,1-.308,1.375m-2.864-.1h.922a1.241,1.241,0,0,0,.936-.31,1.356,1.356,0,0,0,.3-.962,1.319,1.319,0,0,0-.3-.95,1.237,1.237,0,0,0-.931-.31h-.922Z" transform="translate(-13.846 -7.946)" fill="#231f20"/>
        <path id="Path_410366" data-name="Path 410366" d="M134.65,45.429a2.087,2.087,0,0,1,.339,1.271,2.144,2.144,0,0,1-.5,1.535,1.908,1.908,0,0,1-1.454.522h-2.39V41.521h2.267a1.991,1.991,0,0,1,1.4.444,1.655,1.655,0,0,1,.484,1.283,2.119,2.119,0,0,1-.268,1.131,1.048,1.048,0,0,1-.718.512,1.283,1.283,0,0,1,.84.538m-1.858-2.978H131.64v2.078h1.2a.993.993,0,0,0,.738-.243,1.119,1.119,0,0,0,.237-.8.907.907,0,0,0-1.019-1.034m.936,5.072a1.431,1.431,0,0,0,.278-.977,1.37,1.37,0,0,0-.273-.951,1.112,1.112,0,0,0-.845-.289H131.64v2.523h1.248a1.079,1.079,0,0,0,.84-.305" transform="translate(-12.77 -7.946)" fill="#231f20"/>
        <path id="Path_410367" data-name="Path 410367" d="M138.588,47.031H136.03l-.518,1.727H134.4l2.408-7.236h.994l2.409,7.236H139.1Zm-.264-.878-1.011-3.4-1.019,3.4Z" transform="translate(-11.825 -7.946)" fill="#231f20"/>
        <path id="Path_410368" data-name="Path 410368" d="M144.546,41.521v7.236H143.3l-2.768-5.965v5.965h-.949V41.521h1.256l2.768,5.985V41.521Z" transform="translate(-10.525 -7.946)" fill="#231f20"/>
        <rect id="Rectangle_6179" data-name="Rectangle 6179" width="1.019" height="7.236" transform="translate(137.797 33.575)" fill="#231f20"/>
        <path id="Path_410369" data-name="Path 410369" d="M153.533,41.521v7.236h-1.249l-2.768-5.965v5.965h-.949V41.521h1.256l2.768,5.985V41.521Z" transform="translate(-8.266 -7.946)" fill="#231f20"/>
        <path id="Path_410370" data-name="Path 410370" d="M158.7,41.521v7.236h-1.249l-2.768-5.965v5.965h-.948V41.521h1.256l2.768,5.985V41.521Z" transform="translate(-6.968 -7.946)" fill="#231f20"/>
        <path id="Path_410371" data-name="Path 410371" d="M159.28,48.114a3.536,3.536,0,0,1-.606-2.29V44.46a3.5,3.5,0,0,1,.606-2.281,2.873,2.873,0,0,1,3.775,0,3.507,3.507,0,0,1,.6,2.281v1.364a3.521,3.521,0,0,1-.609,2.29,2.829,2.829,0,0,1-3.77,0m3-.656a2.559,2.559,0,0,0,.358-1.52V44.346a2.51,2.51,0,0,0-.358-1.5,1.544,1.544,0,0,0-2.22,0,2.47,2.47,0,0,0-.364,1.5v1.592a2.518,2.518,0,0,0,.364,1.52,1.533,1.533,0,0,0,2.22,0" transform="translate(-5.726 -7.959)" fill="#231f20"/>
        <path id="Path_410372" data-name="Path 410372" d="M163,41.521h1.1l1.749,5.79,1.749-5.79h1.1l-2.312,7.236h-1.071Z" transform="translate(-4.639 -7.946)" fill="#231f20"/>
        <path id="Path_410373" data-name="Path 410373" d="M171.481,47.031h-2.558l-.518,1.727H167.3l2.408-7.236h.994l2.409,7.236h-1.117Zm-.264-.878-1.011-3.4-1.019,3.4Z" transform="translate(-3.558 -7.946)" fill="#231f20"/>
        <path id="Path_410374" data-name="Path 410374" d="M176.107,42.482h-1.748v6.277h-1.02V42.482H171.6v-.961h4.509Z" transform="translate(-2.478 -7.946)" fill="#231f20"/>
        <rect id="Rectangle_6180" data-name="Rectangle 6180" width="1.019" height="7.236" transform="translate(174.579 33.575)" fill="#231f20"/>
        <path id="Path_410375" data-name="Path 410375" d="M178.35,48.114a3.529,3.529,0,0,1-.606-2.29V44.46a3.493,3.493,0,0,1,.606-2.281,2.873,2.873,0,0,1,3.775,0,3.508,3.508,0,0,1,.6,2.281v1.364a3.521,3.521,0,0,1-.608,2.29,2.829,2.829,0,0,1-3.77,0m3-.656a2.549,2.549,0,0,0,.359-1.52V44.346a2.5,2.5,0,0,0-.359-1.5,1.543,1.543,0,0,0-2.219,0,2.461,2.461,0,0,0-.365,1.5v1.592a2.509,2.509,0,0,0,.365,1.52,1.532,1.532,0,0,0,2.219,0" transform="translate(-0.933 -7.959)" fill="#231f20"/>
        <path id="Path_410376" data-name="Path 410376" d="M187.667,41.521v7.236h-1.249l-2.768-5.965v5.965H182.7V41.521h1.256l2.768,5.985V41.521Z" transform="translate(0.312 -7.946)" fill="#231f20"/>
        <path id="Path_410377" data-name="Path 410377" d="M45.919,29.63c.528,0,.791.188.791.563a2.968,2.968,0,0,1-.591,1.474q-.415-.49-.711-.489a4.88,4.88,0,0,0-1.966.722q-1.421.751-1.42,1.27c0,.13.358.264,1.072.4q.85.15,1.341.248t.633.135a2.575,2.575,0,0,1,.791.327.512.512,0,0,1,.244.418l-.081,1.285q-.053.94-2.743,1.88a11.765,11.765,0,0,1-3.565.827,3.715,3.715,0,0,1-1.268-.206,2.612,2.612,0,0,1-1.6-1.568,3.554,3.554,0,0,1-.221-1.293,6.893,6.893,0,0,1,.74-2.8,4.732,4.732,0,0,1,1.708-2.24,5.909,5.909,0,0,0-1.042,2.067q-.252.743-.384,1.311a4.375,4.375,0,0,0-.134.974q0,2.136,2.663,2.135a10.366,10.366,0,0,0,2.618-.45,7.479,7.479,0,0,0,1.489-.576,1.358,1.358,0,0,0,.654-.6,15.143,15.143,0,0,0-2.633-.5q-1.115,0-1.116-.887a4.2,4.2,0,0,1,1.693-2.909,4.752,4.752,0,0,1,3.039-1.51M39.478,40.29l.628-1.114,1.545,1.007-.636,1.045Zm3.726.9-1.553-1.007.651-1.067,1.56.947Zm12.8-4.074h-1.25A3.967,3.967,0,0,1,53.5,39.868a3.685,3.685,0,0,1-2.662,1.323,2.667,2.667,0,0,1-1.761-.676,7.071,7.071,0,0,1-.558-.553,10.34,10.34,0,0,1-.7-.861,1.389,1.389,0,0,0,.392.264,3.671,3.671,0,0,0,.7.255,6.032,6.032,0,0,0,.711.15,5.213,5.213,0,0,0,.577.053A4.153,4.153,0,0,0,53.957,37.2a.865.865,0,0,0,.1-.383q0-1.023-1.493-2.09l.643-1.422a4.118,4.118,0,0,1,1.464,2.369h1.339Zm15.151,0H60.013q-1.485,0-1.915-.541-.34.541-3.416.541V35.674a9.688,9.688,0,0,0,3.121-.263c0-.046.008-.1.01-.163s0-.136,0-.221a2.057,2.057,0,0,0-.074-.707l1.087-1.233a3.245,3.245,0,0,1,.118.88,4.328,4.328,0,0,1-.265,1.482q1.686.233,1.8.233.923,0,3.127-1.692,2.2-1.714,2.966-1.714a1.182,1.182,0,0,1,.511.128q2.2,1.008,2.544,1.744a1.792,1.792,0,0,1,.144.448,3.3,3.3,0,0,1,.048.6,1.686,1.686,0,0,1-.051.482h1.39Zm-2.2-1.91q0-.255-1.25-.865a5.1,5.1,0,0,0-1.582-.586,3.9,3.9,0,0,0-1.649.745,4.2,4.2,0,0,0-1.4,1.172h1.915a21.026,21.026,0,0,0,2.977-.12c.658-.1.987-.211.987-.347m-1.664-5.886L66.61,30.5l-1.664-.985.643-1.181Zm13.916,7.8H69.832V35.674h7.01a.525.525,0,0,0-.159-.282,5.12,5.12,0,0,0-.407-.414,6.971,6.971,0,0,0-.554-.458,5.51,5.51,0,0,0-.6-.4,3.345,3.345,0,0,0-1.589-.458,6.05,6.05,0,0,0-1.923.556,8.312,8.312,0,0,1,.821-1.345,1.81,1.81,0,0,1,1.405-.587,5.007,5.007,0,0,1,3.054,1.572q.3.263.654.538c.234.183.493.367.78.552a3.752,3.752,0,0,0,1.583.722h1.3Zm2.544-8.833-.607,1.249v7.352l-.377.233H79.881V35.674h2.152V28.863l-.393-1.549,1.3-1.323.111,1.548Zm5.175,7.225-1.116,1.608v-9.75l1.116-1.375Zm14.326,1.225a4.262,4.262,0,0,1-1.494,3.277,3.79,3.79,0,0,1-2.485,1.165q-1.515,0-2.957-2.022a2.64,2.64,0,0,0,.325.211,6.565,6.565,0,0,0,.984.327,4.539,4.539,0,0,0,1.027.131,4.153,4.153,0,0,0,3.757-2.624.867.867,0,0,0,.1-.383q0-1.023-1.494-2.09l.643-1.422a2.887,2.887,0,0,1,.651.6,3.79,3.79,0,0,1,.507.827,4.971,4.971,0,0,1,.325.974,4.7,4.7,0,0,1,.115,1.03m7.633.383H109.19a3.479,3.479,0,0,1-1.179-.169,1.265,1.265,0,0,1-.681-.533,2.715,2.715,0,0,1-.218-1.29V27.4l1.109-1.413v9.133q0,.55.5.549h2.16Zm7.32,0h-8.652V35.674h4.865q1.021,0,1.021-.143a9.915,9.915,0,0,0-1.871-1.962,9.622,9.622,0,0,0-2.115-1.752c-.03,0-.076.168-.141.5-.1-.09-.231-.205-.384-.345s-.33-.308-.532-.5a1.534,1.534,0,0,1-.569-1.061,2.844,2.844,0,0,1,.539-1.383,6.8,6.8,0,0,1,1.778-.989q1.631-.756,4.736-2.048l-.747,1.8-5.139,2.127q.1.075.289.221l.488.373a22.624,22.624,0,0,1,5.109,5.164H118.2Zm4.85,0h-6.182V35.674h3.785c.079,0,.119-.068.119-.2a1.534,1.534,0,0,0-.093-.433,4.583,4.583,0,0,0-.225-.559,3.587,3.587,0,0,0-.278-.489q-.145-.21-.248-.21l.673-1.587a4.749,4.749,0,0,1,.836,1.647,5.824,5.824,0,0,1,.347,1.834h1.265Zm-5.8-8.194.628-1.112,1.545,1.007-.636,1.045Zm3.726.9-1.553-1.007.651-1.067,1.56.947Zm5.3,4.029a7.92,7.92,0,0,1,.355,1.962q0,1.3-.355,1.3h-4.562V35.674h3.787c.079,0,.118-.068.118-.2a1.522,1.522,0,0,0-.091-.433,4.8,4.8,0,0,0-.227-.559,3.588,3.588,0,0,0-.277-.489q-.145-.21-.248-.21l.651-1.564q.45.2.85,1.639m-.931,6.044-.681,1.18-1.663-.985.643-1.18Zm13.733-2.782h-1.8a1.334,1.334,0,0,1-1.271-.842c-.005-.015-.048-.153-.126-.413s-.194-.647-.347-1.157a4.055,4.055,0,0,1-.215-.985,3.7,3.7,0,0,1-.237.8,9.838,9.838,0,0,1-.5,1.067,9.616,9.616,0,0,1-1.05,1.721Q132.5,38.38,129.5,38.38a4.128,4.128,0,0,1-1.524-.2,11.221,11.221,0,0,0,4.9-1.94,5.09,5.09,0,0,0,.126-1.037,2.841,2.841,0,0,0-.541-1.728,9,9,0,0,0-1.56-1.819l-.465.578a3.633,3.633,0,0,1-1.309-2.285,1.134,1.134,0,0,1,.053-.33,1.164,1.164,0,0,1,.14-.309,1.049,1.049,0,0,1,.2-.229.36.36,0,0,1,.237-.094q.7,0,1.982,1.482a11.867,11.867,0,0,1,1.575,2.187,7.688,7.688,0,0,1,.333,2.887q.274-.332.462-.591a3.254,3.254,0,0,0,.285-.454,4.223,4.223,0,0,0,.362-1.279q.141-.946.208-2.075t.066-2.458c0-.252,0-.46-.015-.628a2.253,2.253,0,0,0-.051-.394l1.131-.955v2.015a44.178,44.178,0,0,0,.34,6.187q.146.76,1.663.76h1Zm2.543-8.833-.607,1.249v7.352l-.377.233h-2.884V35.674h2.152V28.863l-.392-1.549,1.3-1.323.11,1.548Zm21.079,4.759q.28.225.28,2.27,0,1.753-.206,1.774c-.133.015-.3.029-.5.041s-.434.019-.71.019a8.6,8.6,0,0,1-1.468-.113,4.985,4.985,0,0,1-1.21-.368,1.725,1.725,0,0,1-.908.4q-.193.023-1.029.023a3.345,3.345,0,0,1-1.612,2.8,6.032,6.032,0,0,1-3.335,1.067,8.016,8.016,0,0,1-1.575-.135,3.057,3.057,0,0,1-1.1-.424,1.819,1.819,0,0,1-.644-.733,2.456,2.456,0,0,1-.21-1.06,5.5,5.5,0,0,1,.554-2.142,6.012,6.012,0,0,1,1.161-1.917,3.077,3.077,0,0,0-.318.589,7.757,7.757,0,0,0-.473,1.557,3.581,3.581,0,0,0-.074.673q0,2.187,2.78,2.187a5.5,5.5,0,0,0,.961-.1,7.645,7.645,0,0,0,.876-.223,6.027,6.027,0,0,0,.751-.293q.34-.161.592-.3a4.325,4.325,0,0,0,.4-.252,1.35,1.35,0,0,0,.178-.148,1.273,1.273,0,0,0,.155-.736,5.544,5.544,0,0,0-.081-.741,4.745,4.745,0,0,0-.193-.73,4.045,4.045,0,0,0-.314-.681,2.977,2.977,0,0,0-.448-.586l1.154-1.376a8.655,8.655,0,0,1,.77,2.106q.073.278.91.278a1.236,1.236,0,0,0,.88-.21,1.64,1.64,0,0,0,.163-.932.909.909,0,0,0-.066-.407l1.02-1.045c.01.1.016.233.019.4s0,.354,0,.574a3.32,3.32,0,0,1-.222,1.286.145.145,0,0,0-.023.075q0,.263.991.263c.26,0,.476-.008.643-.023a1.68,1.68,0,0,0,.4-.075.354.354,0,0,0,.2-.15.476.476,0,0,0,.056-.242,1.365,1.365,0,0,0-.414-1.135Zm10.1,4.074h-1.694q-.088.2-1.515.4a14.793,14.793,0,0,1-1.8.158,2.643,2.643,0,0,1-1.146-.173,1.106,1.106,0,0,1-.435-1.03,2.917,2.917,0,0,1,.048-.444c.033-.2.071-.389.119-.582a3.745,3.745,0,0,1,.155-.508q.084-.218.173-.218l.03.008v.556q0,.572.111.647a2.659,2.659,0,0,0,1.228.2c.2,0,.422-.009.658-.026s.5-.046.776-.086q1.132-.158,1.131-.435a7.977,7.977,0,0,0-.5-1.812q-.516-1.5-.725-1.557l.828-1.743a22.365,22.365,0,0,1,1.228,5.2h1.339Zm5.9,0h-7.224V35.674h4.267a3.563,3.563,0,0,0-.932-.422,4.137,4.137,0,0,1-.636-.282,1.634,1.634,0,0,1-.414-.319,1.01,1.01,0,0,1-.221-.392,1.672,1.672,0,0,1-.068-.5,3.535,3.535,0,0,1,.785-1.879q.828-1.188,1.508-1.188.74,0,1.25,1.713a9.67,9.67,0,0,1,.414,2.744,1.97,1.97,0,0,1-.051.519h1.323ZM172.526,28.1l.629-1.112L174.7,28l-.637,1.045Zm4.074,6.541a.126.126,0,0,0,.045-.113,3.512,3.512,0,0,0-.459-1.354q-.481-.961-.895-.962a.472.472,0,0,0-.28.135,3.465,3.465,0,0,0-.614.684,1.062,1.062,0,0,0-.155.308Zm-.347-5.638L174.7,28l.651-1.067,1.56.947Zm5.009-.722-.606,1.249v7.352l-.378.233H177.4V35.674h2.151V28.863l-.392-1.549,1.3-1.323.111,1.548Zm5.495,7.225-1.116,1.608v-9.75l1.116-1.375Zm15.859,1.608h-1.25a3.97,3.97,0,0,1-1.256,2.752,3.687,3.687,0,0,1-2.663,1.323,2.661,2.661,0,0,1-1.759-.676,6.859,6.859,0,0,1-.558-.553,10.078,10.078,0,0,1-.7-.861,1.408,1.408,0,0,0,.392.264,3.654,3.654,0,0,0,.7.255,6.067,6.067,0,0,0,.71.15,5.212,5.212,0,0,0,.577.053,4.153,4.153,0,0,0,3.757-2.624.867.867,0,0,0,.1-.383q0-1.023-1.494-2.09l.643-1.422a4.118,4.118,0,0,1,1.464,2.369h1.339Zm-2.958-7.547-.681,1.18-1.663-.985.643-1.18Zm8.744,5.879a1.06,1.06,0,0,1,.155.6,1.835,1.835,0,0,1-.206.985q-.053.083-.813.083H201.3V35.674h4.755q1.034,0,1.035-.143a8.813,8.813,0,0,0-1.856-1.977,8.727,8.727,0,0,0-2.122-1.737,1.7,1.7,0,0,0-.148.5c-.1-.09-.231-.206-.382-.349s-.324-.309-.521-.5a1.557,1.557,0,0,1-.548-1.061,2.951,2.951,0,0,1,.511-1.383q.289-.465,6.5-3.037l-.718,1.8-5.147,2.127c.084.08.2.178.337.293s.314.248.522.4a32.461,32.461,0,0,1,2.962,2.559,14.7,14.7,0,0,1,1.926,2.282m10.1,1.668h-1.249A3.967,3.967,0,0,1,216,39.868a3.687,3.687,0,0,1-2.662,1.323,2.664,2.664,0,0,1-1.761-.676,6.861,6.861,0,0,1-.558-.553,10.085,10.085,0,0,1-.7-.861,1.388,1.388,0,0,0,.392.264,3.639,3.639,0,0,0,.7.255,6.068,6.068,0,0,0,.709.15,5.24,5.24,0,0,0,.577.053,4.152,4.152,0,0,0,3.757-2.624.85.85,0,0,0,.1-.383q0-1.023-1.494-2.09l.644-1.422a4.118,4.118,0,0,1,1.464,2.369H218.5Zm5.867-1.1a1.077,1.077,0,0,1-1.213,1.225,5.057,5.057,0,0,1-1.53-.3,2.983,2.983,0,0,1-1.324-.722,1.205,1.205,0,0,1-1.286.9h-1.834V35.674a10.354,10.354,0,0,0,2.848-.18,3.225,3.225,0,0,0,.443-.9,8.973,8.973,0,0,1,.425-.943,3.331,3.331,0,0,1,.407-.613,1.283,1.283,0,0,1,.425-.334,1.141,1.141,0,0,1,.48-.1q.828,0,1.53,1.315a6.661,6.661,0,0,1,.477,1.109,2.938,2.938,0,0,1,.151.989m-1.515-.158q.591,0,.592-.36a1.235,1.235,0,0,0-.13-.519,2.722,2.722,0,0,0-.314-.518,1.808,1.808,0,0,0-.414-.4.785.785,0,0,0-.443-.158.68.68,0,0,0-.34.124,2.471,2.471,0,0,0-.384.3,2.423,2.423,0,0,0-.319.362.606.606,0,0,0-.133.33c0,.045.038.1.111.158a1.8,1.8,0,0,0,.288.184c.119.064.249.125.392.185s.284.113.422.158.267.083.385.113a1.221,1.221,0,0,0,.288.045" transform="translate(-36.402 -11.85)" fill="#231f20"/>
        <path id="Path_410378" data-name="Path 410378" d="M218.273,23.863h1.38v-4.27h-1.38Zm6.041-7.338h-6.09v1.062h4.709v6.275h1.381Zm-11.181,0h-3.377v1.062h1.065L209.7,23.863h1.394l1.089-6.275h.711c1.356,0,1.846.637,1.846,2.435V22.8h-2.091v1.062h3.474V19.987c0-2.52-.857-3.461-2.984-3.461m-6.522,7.338h1.38V19.814c0-2.506-.806-3.288-2.971-3.288h-2.166v1.062h1.884c1.408,0,1.872.514,1.872,2.349Zm-8.04-7.338h-2.19v1.062h1.859c1.468,0,1.9.71,1.9,2.3V20.5c0,1.59-.429,2.3-1.9,2.3h-1.859v1.062h2.19c2.19,0,2.948-.928,2.948-3.3v-.733c0-2.374-.758-3.3-2.948-3.3m-3.395,0h-4.093v1.062h1.661v.038c-.5.33-.89,1.112-.561,2.838l.671,3.4h1.369l-.722-3.6c-.329-1.676.012-2.311.392-2.679h1.284Zm-17.185,7.338h1.443l2.667-7.338H177.87V14.69h-1.32v2.9h3.766Zm-5.482-7.338h-3.571v7.338h1.381V17.588h1.811c1.213,0,1.641.428,1.641,2.08v4.2h1.393V19.644c0-2.41-.77-3.118-2.654-3.118m-5.507,0h-5.8v1.062h3.522v6.275h1.38V17.588H167Zm-11.964,4.759h1.308V16.526h-1.308Zm4.489-4.759H158.2v3.56c0,2.165-.71,2.715-2.5,2.715h-2.127l-.636-6.275H151.59l.771,7.338h3.584c2.459,0,3.584-.867,3.584-3.644Zm-11.805,7.338c1.405,0,1.858-.524,1.858-2.066V16.526h-2.665v1.062H148.2v4.051c0,.832-.233,1.162-.991,1.162h-.881v1.062Zm-3.086-7.338h-1.38v7.338h1.38Zm-6.522,0h-3.962v1.062h1.027V22.8h-1.457v1.062h2.764V17.588h1.345c1.188,0,1.714.514,1.714,2.179v4.1h1.38V19.644c0-2.336-.867-3.118-2.813-3.118m-15.279,0v3.56c0,1.6-.392,2.141-1.749,2.52l-.1.024-1.235-6.1h-1.383L119.706,23l-1.628.478.269,1.04,3-.832c2.006-.563,2.874-1.493,2.874-3.56v-3.6Zm-6.35,0H115.1v4.221h1.381Zm-4.846,7.338h1.381V19.814c0-2.506-.807-3.288-2.972-3.288h-2.165v1.062h1.884c1.406,0,1.871.514,1.871,2.349Zm-5.531-7.338h-1.381v7.338h1.381Zm-5.578,7.338c1.4,0,1.856-.524,1.856-2.066V16.526H99.722v1.062h1.284v4.051c0,.832-.232,1.162-.991,1.162h-.881v1.062Zm-2.817-7.338H96.332v4.221h1.381Zm-6.278,0H87.473v1.062H88.5V22.8H87.045v1.062h2.763V17.588h1.346c1.189,0,1.713.514,1.713,2.179v4.1h1.381V19.644c0-2.336-.868-3.118-2.813-3.118m-14.527,0h-1.38v4.221h1.38Zm-4.844,7.338h1.38V19.814c0-2.506-.806-3.288-2.971-3.288H68.31v1.062h1.884c1.405,0,1.871.514,1.871,2.349Zm-5.533-7.338h-1.38v7.338h1.38Zm-8.258,4.759h1.308V16.526H58.274Zm4.489-4.759H61.431v3.56c0,2.165-.711,2.715-2.5,2.715H56.806l-.636-6.275H54.826l.771,7.338h3.583c2.46,0,3.584-.867,3.584-3.644ZM49.195,23.863h1.444l2.667-7.338H49.072V14.69H47.753v2.9H51.52Zm-3.1-7.338h-1.38v4.221H46.1ZM41.266,22.8H37.79V17.588h2.081c1.016,0,1.4.44,1.4,1.836ZM40.25,16.526h-3.8v7.338H42.61V19.191c0-1.981-.659-2.665-2.36-2.665" transform="translate(-36.446 -14.69)" fill="#231f20"/>
      </g>
      <path id="Path_410379" data-name="Path 410379" d="M218.417,38.233a7.065,7.065,0,0,1-2.3-.385c-2.663,2.859-5.886,7.128-7.105,12.008h16.025a5.069,5.069,0,0,1-.031-.537,4.9,4.9,0,0,1,2.3-4.148,34.635,34.635,0,0,0-5.57-7.759,7.077,7.077,0,0,1-3.317.822" transform="translate(-18923.846 -7611.572)" fill="#479cbd"/>
      <path id="Path_410380" data-name="Path 410380" d="M204.087,37.5a28.294,28.294,0,0,0,11.615-.143c-.023-.226-.034-.455-.034-.688a7.132,7.132,0,0,1,3.923-6.363c-1.677-4.474-4.672-10.018-9.747-12.847-5.939-3.31-13.522-2.227-18.253-1V26.777a24.233,24.233,0,0,0,4.96,6.776,4.889,4.889,0,0,1,7.536,3.952" transform="translate(-18928.223 -7617.139)" fill="#61be8f"/>
      <path id="Path_410381" data-name="Path 410381" d="M218.141,28.137c.22.533.422,1.056.607,1.565.059,0,.116-.005.175-.005a7.137,7.137,0,0,1,1.809.234q.313-.871.691-1.794c2.339-5.68,5.642-10,9.6-12.576a4.866,4.866,0,0,1-.094-.9H206.995c.161.084.325.165.484.253,4.43,2.469,8.116,7.042,10.661,13.225" transform="translate(-18924.352 -7617.291)" fill="#30788a"/>
      <path id="Path_410382" data-name="Path 410382" d="M224.9,35.676c-1.15-.191-2.226-.423-3.2-.663a7.117,7.117,0,0,1-.624.985,36.651,36.651,0,0,1,6.3,9.05,4.907,4.907,0,0,1,4.4,4.875,5.05,5.05,0,0,1-.03.536H236v-14.8a26.619,26.619,0,0,1-5.346.518,35.013,35.013,0,0,1-5.755-.5" transform="translate(-18920.813 -7612.175)" fill="#0a4742"/>
      <path id="Path_410383" data-name="Path 410383" d="M216.676,36.836c-.539.113-1.1.219-1.678.315a35,35,0,0,1-5.755.5,26.131,26.131,0,0,1-6.029-.668,4.894,4.894,0,0,1-8.605-4.511,24.069,24.069,0,0,1-3.018-3.332v22.8H210.2c1.174-5.606,4.622-10.41,7.591-13.677a7.2,7.2,0,0,1-1.117-1.422" transform="translate(-18928.223 -7613.651)" fill="#787d59"/>
      <path id="Path_410384" data-name="Path 410384" d="M232.506,18.857a4.876,4.876,0,0,1-3.248-1.241c-4.805,3.192-7.571,8.829-9.066,13.134a7.116,7.116,0,0,1,2.54,5.45c0,.1,0,.205-.007.307,3.639.89,8.738,1.614,13.5.476V17.143a4.888,4.888,0,0,1-3.715,1.714" transform="translate(-18921.035 -7616.666)" fill="#831521"/>
      <path id="Path_410385" data-name="Path 410385" d="M217.337,29.15a4.033,4.033,0,1,0,4.033,4.033,4.038,4.038,0,0,0-4.033-4.033" transform="translate(-18922.764 -7613.648)" fill="#61be8f"/>
      <path id="Path_410386" data-name="Path 410386" d="M228.589,14.6a1.807,1.807,0,1,0,3.614,0" transform="translate(-18918.922 -7617.306)" fill="#61be8f"/>
      <path id="Path_410387" data-name="Path 410387" d="M199.837,33.535a1.807,1.807,0,1,0-1.807,1.807,1.809,1.809,0,0,0,1.807-1.807" transform="translate(-18927.059 -7613)" fill="#61be8f"/>
      <path id="Path_410388" data-name="Path 410388" d="M227.782,47.83a1.8,1.8,0,1,0-3.523-.539,1.754,1.754,0,0,0,.093.539Z" transform="translate(-18920.012 -7609.543)" fill="#61be8f"/>
    </g>
    <g id="Rectangle_6182" data-name="Rectangle 6182" transform="translate(1531 10)" fill="#fff" stroke="#707070" stroke-width="1" opacity="0">
      <rect width="26" height="5" stroke="none"/>
      <rect x="0.5" y="0.5" width="25" height="4" fill="none"/>
    </g>
  </g>
</svg>
