<?xml version="1.0" encoding="UTF-8" standalone="no"?>
<svg
   xmlns:dc="http://purl.org/dc/elements/1.1/"
   xmlns:cc="http://creativecommons.org/ns#"
   xmlns:rdf="http://www.w3.org/1999/02/22-rdf-syntax-ns#"
   xmlns:svg="http://www.w3.org/2000/svg"
   xmlns="http://www.w3.org/2000/svg"
   viewBox="0 0 1332 628"
   height="628"
   width="1332"
   xml:space="preserve"
   id="svg2"
   version="1.1"><metadata
     id="metadata8"><rdf:RDF><cc:Work
         rdf:about=""><dc:format>image/svg+xml</dc:format><dc:type
           rdf:resource="http://purl.org/dc/dcmitype/StillImage" /></cc:Work></rdf:RDF></metadata><defs
     id="defs6"><clipPath
       id="clipPath20"
       clipPathUnits="userSpaceOnUse"><path
         style="clip-rule:evenodd"
         id="path18"
         d="M 356.2769,9.082455 C 287.8423,11.52976 234.6997,69.76385 234.6997,137.9108 v 192.5624 c 0,50.1762 -38.6616,93.5247 -89.0179,95.8744 -53.58087,2.5059 -97.97866,-40.1527 -97.97866,-92.9324 V 31.38806 c 0,-2.01122 -1.63515,-3.63841 -3.65621,-3.63841 H 18.64967 C 16.63516,27.74965 15,29.37684 15,31.38806 V 330.0892 c 0,68.147 53.14261,126.381 121.5772,128.8283 71.6853,2.558 130.8257,-54.7323 130.8257,-125.5023 V 137.5268 c 0,-50.17622 38.6551,-93.52472 89.0179,-95.8809 53.5743,-2.49937 97.9721,40.1592 97.9721,92.9389 v 198.8304 c 0,68.1404 54.8236,123.784 122.8919,125.5414 1.8052,0.0434 3.3095,-1.445 3.3095,-3.2414 v -26.1718 c 0,-1.7248 -1.38,-3.0852 -3.1133,-3.1372 -50.1143,-1.6402 -90.3849,-42.7237 -90.3849,-92.991 V 134.5848 C 487.0961,63.81482 427.9622,6.524502 356.2769,9.082455" /></clipPath><clipPath
       id="clipPath26"
       clipPathUnits="userSpaceOnUse"><path
         id="path24"
         d="M 0,0 H 999 V 471 H 0 Z" /></clipPath><clipPath
       id="clipPath36"
       clipPathUnits="userSpaceOnUse"><path
         style="clip-rule:evenodd"
         id="path34"
         d="M 921.9653,93.99955 V 30.24297 h 13.8214 v 24.26208 c 0,3.19919 0.7587,5.7232 2.2763,7.57204 1.5109,1.84884 3.5583,2.77641 6.1355,2.77641 2.4006,0 4.3302,-0.76982 5.7954,-2.31578 1.4587,-1.54596 2.1848,-3.59041 2.1848,-6.13335 V 30.24297 H 966 v 28.48349 c 0,5.13006 -1.4848,9.2442 -4.461,12.33612 -2.9762,3.09191 -6.9532,4.63787 -11.931,4.63787 -3.2051,0 -5.9982,-0.66255 -8.3726,-1.98766 -2.3744,-1.32511 -4.1929,-3.19919 -5.4487,-5.62855 V 93.99955 Z M 886.3032,31.85203 c 3.578,-1.84884 7.7381,-2.77011 12.487,-2.77011 4.9189,0 9.3538,0.99068 13.3046,2.97834 v 11.42747 c -1.3736,-1.04747 -2.9762,-1.86146 -4.8077,-2.44198 -1.8315,-0.58053 -3.7481,-0.87079 -5.7497,-0.87079 -4.0097,0 -7.1559,1.09164 -9.4453,3.27491 -2.2894,2.17696 -3.4275,5.14268 -3.4275,8.90346 0,3.74816 1.1119,6.74542 3.3425,8.97917 2.237,2.23376 5.2983,3.35694 9.1837,3.35694 2.1193,0 4.1078,-0.33443 5.9655,-0.99698 1.8642,-0.66256 3.506,-1.62799 4.9385,-2.89631 V 73.2143 c -3.493,1.65954 -7.555,2.48615 -12.1926,2.48615 -4.9778,0 -9.3407,-0.99067 -13.0888,-2.98465 -3.748,-1.98766 -6.6523,-4.783 -8.7127,-8.40496 -2.0539,-3.60934 -3.0874,-7.79289 -3.0874,-12.54435 0,-4.58108 0.9877,-8.58164 2.9631,-12.00168 1.9754,-3.42635 4.7488,-6.06394 8.3268,-7.91278 z m -43.3936,42.60534 v -44.2144 h 13.8213 v 22.68457 c 0,3.2055 0.8242,5.75475 2.4856,7.66038 1.6615,1.90563 3.9181,2.85845 6.7831,2.85845 2.2306,0 4.0948,-0.55529 5.5796,-1.65954 v 13.08701 c -1.2036,0.32812 -2.4595,0.49218 -3.7808,0.49218 -2.4005,0 -4.5591,-0.56159 -6.4756,-1.69109 -1.9166,-1.13581 -3.421,-2.75117 -4.5069,-4.84611 l -3.434,5.62855 z M 805.5729,39.39252 c -1.0923,0.90864 -1.6352,2.16434 -1.6352,3.76709 0,2.87106 2.0081,4.7199 6.0112,5.54652 l 9.4389,1.98766 v -1.98766 c 0,-3.19919 -0.8569,-5.7863 -2.5772,-7.74241 -1.7138,-1.95611 -3.977,-2.94048 -6.7766,-2.94048 -1.8904,0 -3.3752,0.45432 -4.4611,1.36928 z M 795.31,32.72281 c 2.8323,-2.47984 6.6523,-3.72292 11.46,-3.72292 3.1528,0 5.9524,0.57422 8.4118,1.73526 2.4595,1.16105 4.4087,2.82059 5.8412,4.97231 l 5.6646,-5.46449 h 6.2599 v 27.985 c 0,5.35722 -1.7661,9.60387 -5.318,12.75258 -3.5452,3.1487 -8.2941,4.7199 -14.2465,4.7199 -5.5534,0 -10.1845,-1.36928 -13.9064,-4.10152 -3.7218,-2.73225 -5.9524,-6.44255 -6.6981,-11.13721 h 12.6178 c 0,1.76681 0.6476,3.16133 1.9297,4.18355 1.2886,1.02223 3.0481,1.53334 5.2852,1.53334 2.0015,0 3.6303,-0.41646 4.8927,-1.24308 1.2559,-0.82661 1.8839,-1.90563 1.8839,-3.23073 0,-0.99068 -0.3402,-1.74788 -1.027,-2.27793 -0.6868,-0.52373 -1.9493,-0.97805 -3.7808,-1.36296 l -10.6423,-2.31579 c -4.4022,-0.94019 -7.6531,-2.47353 -9.7397,-4.60001 -2.0866,-2.12648 -3.1332,-4.92814 -3.1332,-8.40496 0,-4.19618 1.4129,-7.53418 4.2452,-10.02034 z m -22.5276,24.26208 h -20.6045 c 0.4579,2.59974 1.5895,4.6505 3.3883,6.17121 1.8054,1.51441 4.0817,2.27793 6.8289,2.27793 2.8062,0 5.1217,-0.76352 6.9532,-2.27793 1.8315,-1.52071 2.9762,-3.57147 3.4341,-6.17121 z M 750.2876,31.85203 c 3.3817,-1.84884 7.2671,-2.77011 11.6758,-2.77011 5.3245,0 9.9032,1.29356 13.7363,3.88698 3.8331,2.59974 6.5804,6.13336 8.2353,10.60086 h -12.9579 c -0.8569,-1.32511 -2.0343,-2.35995 -3.5192,-3.10454 -1.4848,-0.74458 -3.1789,-1.11687 -5.0628,-1.11687 -2.865,0 -5.1936,0.81399 -6.9989,2.44198 -1.7988,1.62799 -2.9043,3.84912 -3.3033,6.66971 h 33.0456 c 0.229,1.31879 0.3467,2.81427 0.3467,4.4675 0,4.63787 -0.9288,8.66999 -2.793,12.09002 -1.8577,3.42004 -4.4872,6.05764 -7.8951,7.91279 -3.408,1.84884 -7.313,2.7701 -11.7152,2.7701 -4.6376,0 -8.7258,-0.99067 -12.2776,-2.98465 -3.5453,-1.98766 -6.3056,-4.783 -8.281,-8.40496 -1.9754,-3.60934 -2.9632,-7.79289 -2.9632,-12.54435 0,-4.58108 0.942,-8.58164 2.8323,-12.00168 1.8904,-3.42635 4.5199,-6.06394 7.8952,-7.91278 z m -44.6758,-1.86146 c 2.8323,-0.60576 5.5927,-0.90865 8.2811,-0.90865 5.7234,0 10.3611,1.3819 13.9063,4.13939 3.5453,2.75748 5.3245,6.5435 5.3245,11.34544 0,3.03512 -0.8569,5.4771 -2.5772,7.32594 -1.7138,1.84884 -4.2648,3.2686 -7.64,4.26559 -2.0604,0.54897 -3.5453,0.90864 -4.461,1.07901 -2.8062,0.60577 -4.8535,1.22415 -6.1421,1.86146 -1.2821,0.63101 -1.9296,1.64061 -1.9296,3.02251 0,1.26832 0.5167,2.17696 1.5437,2.73224 1.0334,0.54898 2.3744,0.82662 4.0358,0.82662 2.4071,0 4.9647,-0.4985 7.6858,-1.48917 2.7146,-0.99699 5.0759,-2.34733 7.0775,-4.05735 v 12.00799 c -2.0605,1.16105 -4.3891,2.03814 -6.9925,2.65022 -2.6033,0.60576 -5.1936,0.90864 -7.7708,0.90864 -5.4945,0 -9.8967,-1.32511 -13.2196,-3.97532 -3.3163,-2.65021 -4.9777,-6.37313 -4.9777,-11.18138 0,-6.17752 3.4079,-10.29166 10.2172,-12.33611 1.5437,-0.44171 3.2051,-0.85186 4.9777,-1.23677 2.6296,-0.55528 4.5657,-1.10426 5.7955,-1.65954 1.2297,-0.55528 1.8446,-1.46393 1.8446,-2.73224 0,-2.37889 -2.0867,-3.55886 -6.2664,-3.55886 -2.7473,0 -5.5403,0.53635 -8.3726,1.60906 -2.8323,1.07901 -5.5076,2.61235 -8.0194,4.60001 V 32.64078 c 2.2828,-1.16104 4.8469,-2.04445 7.6792,-2.65021 z m -27.852,26.99432 h -20.6044 c 0.4578,2.59974 1.5894,4.6505 3.3882,6.17121 1.8054,1.51441 4.0817,2.27793 6.829,2.27793 2.7995,0 5.1216,-0.76352 6.9466,-2.27793 1.8381,-1.52071 2.9827,-3.57147 3.4406,-6.17121 z M 655.265,31.85203 c 3.3817,-1.84884 7.2671,-2.77011 11.6758,-2.77011 5.3245,0 9.9032,1.29356 13.7363,3.88698 3.833,2.59974 6.5803,6.13336 8.2352,10.60086 h -12.9579 c -0.8569,-1.32511 -2.0343,-2.35995 -3.5191,-3.10454 -1.4849,-0.74458 -3.179,-1.11687 -5.0628,-1.11687 -2.8651,0 -5.1937,0.81399 -6.999,2.44198 -1.7988,1.62799 -2.9043,3.84912 -3.3033,6.66971 h 33.0457 c 0.2289,1.31879 0.3466,2.81427 0.3466,4.4675 0,4.63787 -0.9288,8.66999 -2.793,12.09002 -1.8577,3.42004 -4.4872,6.05764 -7.8951,7.91279 -3.4079,1.84884 -7.313,2.7701 -11.7151,2.7701 -4.6377,0 -8.7324,-0.99067 -12.2777,-2.98465 -3.5453,-1.98766 -6.3056,-4.783 -8.281,-8.40496 -1.9754,-3.60934 -2.9631,-7.79289 -2.9631,-12.54435 0,-4.58108 0.9419,-8.58164 2.8323,-12.00168 1.8903,-3.42635 4.5199,-6.06394 7.8951,-7.91278 z m -40.424,32.17486 h -5.5796 V 79.7578 h 5.8347 c 2.5772,0 4.6507,-0.67517 6.2206,-2.03183 1.5764,-1.35035 2.3613,-3.21181 2.3613,-5.58438 0,-2.42936 -0.8176,-4.39178 -2.4464,-5.88095 -1.6287,-1.48917 -3.7611,-2.23375 -6.3906,-2.23375 z m -19.2309,26.1614 V 30.24297 h 13.6513 v 23.59952 h 1.112 l 15.8818,-23.59952 h 16.5686 l -17.9422,25.08869 c 4.0031,1.43238 7.1363,3.68506 9.3995,6.74543 2.2632,3.06667 3.3883,6.6697 3.3883,10.80909 0,5.35721 -1.8577,9.57863 -5.5795,12.67054 -3.7219,3.08561 -8.667,4.63157 -14.8484,4.63157 z" /></clipPath><clipPath
       id="clipPath42"
       clipPathUnits="userSpaceOnUse"><path
         id="path40"
         d="M 0,0 H 999 V 471 H 0 Z" /></clipPath><clipPath
       id="clipPath52"
       clipPathUnits="userSpaceOnUse"><path
         style="clip-rule:evenodd"
         id="path50"
         d="m 796.9983,159.4569 v -44.2207 h 13.7695 v 24.2621 c 0,3.2055 0.7559,5.7295 2.2678,7.5783 1.5118,1.8489 3.545,2.7765 6.1125,2.7765 2.3916,0 4.3205,-0.7762 5.7737,-2.3221 1.4532,-1.546 2.1765,-3.5841 2.1765,-6.1271 v -26.1677 h 13.7696 v 28.4898 c 0,5.1301 -1.4793,9.2442 -4.4443,12.3361 -2.9651,3.0919 -6.9272,4.6379 -11.8863,4.6379 -2.965,0 -5.6173,-0.6058 -7.9567,-1.8236 -2.3329,-1.2115 -4.1576,-2.9279 -5.4674,-5.1364 l -5.7346,5.7169 z" /></clipPath><clipPath
       id="clipPath58"
       clipPathUnits="userSpaceOnUse"><path
         id="path56"
         d="M 0,0 H 999 V 471 H 0 Z" /></clipPath><clipPath
       id="clipPath68"
       clipPathUnits="userSpaceOnUse"><path
         style="clip-rule:evenodd"
         id="path66"
         d="m 767.5825,160.7 c 5.9301,0 10.6611,-1.5775 14.1931,-4.7199 3.5385,-3.1487 5.3045,-7.4017 5.3045,-12.7526 v 0 -27.9913 h -6.2429 l -5.6434,5.4645 c -1.4271,-2.1517 -3.3625,-3.805 -5.8193,-4.966 -2.4502,-1.161 -5.2393,-1.7353 -8.3738,-1.7353 -4.7896,0 -8.5953,1.2368 -11.417,3.723 -2.8217,2.4861 -4.2358,5.8241 -4.2358,10.0203 0,3.4768 1.0427,6.2785 3.1215,8.405 2.0788,2.1264 5.3175,3.6535 9.7031,4.5937 v 0 l 10.609,2.3221 c 1.8182,0.3849 3.0758,0.8392 3.7601,1.3629 0.6842,0.5238 1.0296,1.2873 1.0296,2.2779 0,1.3252 -0.6321,2.4042 -1.8833,3.2308 -1.2577,0.8266 -2.8803,1.2431 -4.8744,1.2431 -2.2221,0 -3.9751,-0.5112 -5.2589,-1.5334 -1.2837,-1.0222 -1.9289,-2.4167 -1.9289,-4.1835 v 0 h -12.5704 c 0.7429,4.6946 2.9715,8.4049 6.6729,11.1372 3.708,2.7322 8.3217,4.1015 13.8543,4.1015 z m 5.9887,-25.0067 -9.4099,-1.9876 c -3.9882,-0.8266 -5.9888,-2.6818 -5.9888,-5.5465 0,-1.6028 0.5474,-2.8585 1.6292,-3.7734 1.0817,-0.9087 2.561,-1.363 4.4443,-1.363 2.7956,0 5.0503,0.978 6.7577,2.9405 1.7073,1.9561 2.5675,4.5369 2.5675,7.7424 v 0 z" /></clipPath><clipPath
       id="clipPath74"
       clipPathUnits="userSpaceOnUse"><path
         id="path72"
         d="M 0,0 H 999 V 471 H 0 Z" /></clipPath><clipPath
       id="clipPath84"
       clipPathUnits="userSpaceOnUse"><path
         style="clip-rule:evenodd"
         id="path82"
         d="M 706.1833,178.9991 V 155.816 c 3.3626,3.256 7.6114,4.884 12.7399,4.884 4.1055,0 7.7417,-0.9528 10.9023,-2.8584 3.167,-1.9057 5.6172,-4.5938 7.3572,-8.0706 1.7399,-3.4831 2.6066,-7.4837 2.6066,-12.008 0,-4.6946 -0.9384,-8.834 -2.8217,-12.4244 -1.8833,-3.5841 -4.516,-6.3732 -7.9111,-8.3608 -3.3951,-1.9877 -7.2855,-2.9784 -11.6712,-2.9784 -2.8477,0 -5.4739,0.4922 -7.872,1.4892 -2.3916,0.9907 -4.4117,2.3978 -6.0669,4.2214 v 0 l -4.5356,-4.4738 h -6.4123 v 63.7629 z m 10.003,-29.146 c -3.1345,0 -5.6434,-1.1611 -7.5267,-3.4769 -1.8833,-2.3221 -2.8216,-5.3824 -2.8216,-9.1937 0,-3.8113 0.9383,-6.8338 2.8216,-9.0675 1.8833,-2.2338 4.3596,-3.357 7.442,-3.357 3.1344,0 5.6433,1.1611 7.5266,3.4832 1.8833,2.3158 2.8217,5.3824 2.8217,9.1874 0,3.8113 -0.9384,6.8338 -2.8217,9.0675 -1.8833,2.2401 -4.3596,3.357 -7.4419,3.357 z" /></clipPath><clipPath
       id="clipPath90"
       clipPathUnits="userSpaceOnUse"><path
         id="path88"
         d="M 0,0 H 999 V 471 H 0 Z" /></clipPath><clipPath
       id="clipPath100"
       clipPathUnits="userSpaceOnUse"><path
         style="clip-rule:evenodd"
         id="path98"
         d="m 657.5241,159.4569 v -44.2207 h 13.763 v 22.6909 c 0,3.1992 0.8276,5.7547 2.4828,7.6604 1.6552,1.9056 3.9034,2.8584 6.7577,2.8584 2.2221,0 4.0728,-0.5553 5.5586,-1.6595 v 13.087 c -1.199,0.3281 -2.4502,0.4922 -3.7666,0.4922 -2.3915,0 -4.542,-0.5616 -6.4514,-1.6974 -1.9093,-1.1295 -3.4081,-2.7449 -4.4899,-4.8398 l -3.4212,5.6285 z" /></clipPath><clipPath
       id="clipPath106"
       clipPathUnits="userSpaceOnUse"><path
         id="path104"
         d="M 0,0 H 999 V 471 H 0 Z" /></clipPath><clipPath
       id="clipPath116"
       clipPathUnits="userSpaceOnUse"><path
         style="clip-rule:evenodd"
         id="path114"
         d="m 607.4507,116.8957 c 3.7406,-1.9371 8.0545,-2.8963 12.955,-2.8963 5.135,0 9.6641,1.0475 13.6001,3.1424 3.936,2.1013 6.9857,5.0544 9.1492,8.8593 2.1701,3.8113 3.2518,8.1968 3.2518,13.1691 v 36.0176 h -14.0237 l -0.0912,-36.6802 c 0,-3.6472 -1.0101,-6.5435 -3.0302,-8.6952 -2.0266,-2.1517 -4.7766,-3.2308 -8.2565,-3.2308 -3.4733,0 -6.2233,1.0475 -8.25,3.1488 -2.0266,2.0949 -3.0367,4.9155 -3.0367,8.4428 l -0.0847,37.0146 H 595.6101 V 137.763 c 0,-4.8019 1.0427,-8.9981 3.1215,-12.5885 2.0788,-3.5904 4.9851,-6.3479 8.7191,-8.2788 z" /></clipPath><clipPath
       id="clipPath122"
       clipPathUnits="userSpaceOnUse"><path
         id="path120"
         d="M 0,0 H 999 V 471 H 0 Z" /></clipPath><clipPath
       id="clipPath132"
       clipPathUnits="userSpaceOnUse"><path
         style="clip-rule:evenodd"
         id="path130"
         d="m 812.6233,248.1172 17.2257,-44.6438 h 13.6388 l 17.4011,44.6438 h -12.5407 l -11.0853,-30.0938 -10.9942,30.0938 z" /></clipPath><clipPath
       id="clipPath138"
       clipPathUnits="userSpaceOnUse"><path
         id="path136"
         d="M 0,0 H 999 V 471 H 0 Z" /></clipPath><clipPath
       id="clipPath148"
       clipPathUnits="userSpaceOnUse"><path
         style="clip-rule:evenodd"
         id="path146"
         d="m 787.8083,249.3722 c 4.3795,0 8.2586,-0.9365 11.6375,-2.803 3.3853,-1.8665 5.9975,-4.5294 7.8493,-7.9821 1.8454,-3.4528 2.7681,-7.5235 2.7681,-12.2057 0,-1.6691 -0.1105,-3.1788 -0.3379,-4.5166 v 0 H 776.892 c 0.4028,-2.8412 1.4945,-5.0836 3.2878,-6.7272 1.7869,-1.6435 4.1066,-2.4653 6.9462,-2.4653 1.8778,0 3.5543,0.3758 5.0358,1.1275 1.475,0.7517 2.6381,1.7965 3.4958,3.1343 v 0 h 12.8721 c -1.6504,-4.5103 -4.3795,-8.0777 -8.1872,-10.7023 -3.8077,-2.6182 -8.3562,-3.9242 -13.6454,-3.9242 -4.373,0 -8.2392,0.9301 -11.592,2.7966 -3.3529,1.8666 -5.9715,4.5294 -7.8429,7.9885 -1.8778,3.4528 -2.82,7.4916 -2.82,12.1165 0,4.7969 0.9877,9.0142 2.9435,12.6644 1.9623,3.6502 4.7044,6.4787 8.2327,8.4854 3.5218,2.0067 7.5829,3.0132 12.1899,3.0132 z m -0.6823,-10.3647 c -2.7291,0 -4.9903,-0.7708 -6.7772,-2.2997 -1.7934,-1.5353 -2.9175,-3.612 -3.3724,-6.2302 v 0 h 20.4681 c -0.4549,2.6182 -1.592,4.6949 -3.4114,6.2302 -1.8193,1.5289 -4.1196,2.2997 -6.9071,2.2997 z" /></clipPath><clipPath
       id="clipPath154"
       clipPathUnits="userSpaceOnUse"><path
         id="path152"
         d="M 0,0 H 999 V 471 H 0 Z" /></clipPath><clipPath
       id="clipPath164"
       clipPathUnits="userSpaceOnUse"><path
         style="clip-rule:evenodd"
         id="path162"
         d="m 734.8578,248.9517 c 1.2475,0 3.0669,-0.1083 5.4581,-0.3312 2.9565,-0.3377 5.9065,-0.5033 8.863,-0.5033 v 0 h 11.8585 V 238.001 h -7.6804 c 0.5133,-1.5034 0.7667,-3.0896 0.7667,-4.7651 0,-3.2298 -0.8642,-6.1028 -2.5991,-8.6127 -1.7349,-2.5036 -4.1716,-4.4402 -7.3295,-5.8099 -3.1579,-1.3632 -6.7772,-2.0449 -10.8773,-2.0449 -2.6121,0 -5.1138,0.3058 -7.4985,0.9174 -0.3443,-0.8345 -0.5133,-1.6436 -0.5133,-2.4208 0,-1.1148 0.4419,-1.9111 1.3191,-2.3825 0.8837,-0.4778 2.3782,-0.7708 4.4769,-0.8791 3.4699,-0.223 6.1405,-0.3631 8.0183,-0.4205 5.2892,-0.1656 9.4673,-1.1658 12.5342,-3.0068 3.0735,-1.841 4.607,-4.9052 4.607,-9.1989 0,-4.9561 -2.0923,-8.7593 -6.2704,-11.4094 -4.1781,-2.6437 -9.9026,-3.9687 -17.1801,-3.9687 -3.2424,0 -6.4523,0.2612 -9.6363,0.7899 -3.1839,0.5351 -5.913,1.2677 -8.1872,2.2169 v 0 11.2055 c 2.0468,-1.2868 4.9318,-2.3443 8.6551,-3.1788 3.7232,-0.8345 7.2645,-1.255 10.6174,-1.255 2.729,0 4.8993,0.3186 6.5237,0.962 1.618,0.6434 2.4302,1.6308 2.4302,2.9686 0,0.7772 -0.3834,1.3951 -1.1501,1.841 -0.7667,0.446 -2.0338,0.7517 -3.7947,0.9174 -1.4815,0.1083 -2.6186,0.1656 -3.4113,0.1656 v 0 l -3.4114,0.1656 c -5.1202,0.2803 -9.0969,1.134 -11.9364,2.5546 -2.846,1.4206 -4.2691,3.9432 -4.2691,7.5616 0,3.4592 1.4555,6.6635 4.3536,9.613 -1.9949,1.3951 -3.5283,3.1215 -4.607,5.1855 -1.0786,2.064 -1.6179,4.3765 -1.6179,6.9374 0,3.2361 0.8642,6.0773 2.5991,8.5299 1.7349,2.4527 4.2236,4.3574 7.4594,5.727 3.2424,1.3633 7.0502,2.0449 11.4297,2.0449 z m -1.0267,-9.1096 c -2.5016,0 -4.49,-0.6435 -5.965,-1.9239 -1.4815,-1.2805 -2.2157,-2.9814 -2.2157,-5.0963 0,-2.1214 0.7212,-3.7904 2.1703,-5.0199 1.449,-1.2231 3.3983,-1.8411 5.8415,-1.8411 2.5016,0 4.4899,0.6435 5.9714,1.9239 1.475,1.2805 2.2158,2.9814 2.2158,5.1027 0,2.115 -0.7278,3.7904 -2.1768,5.0135 -1.449,1.2295 -3.3918,1.8411 -5.8415,1.8411 z" /></clipPath><clipPath
       id="clipPath170"
       clipPathUnits="userSpaceOnUse"><path
         id="path168"
         d="M 0,0 H 999 V 471 H 0 Z" /></clipPath><clipPath
       id="clipPath180"
       clipPathUnits="userSpaceOnUse"><path
         style="clip-rule:evenodd"
         id="path178"
         d="m 683.8631,249.3722 c 4.3795,0 8.2587,-0.9365 11.644,-2.803 3.3789,-1.8665 5.991,-4.5294 7.8429,-7.9821 1.8454,-3.4528 2.768,-7.5235 2.768,-12.2057 0,-1.6691 -0.1104,-3.1788 -0.3378,-4.5166 v 0 h -32.8269 c 0.3964,-2.8412 1.488,-5.0836 3.2814,-6.7272 1.7869,-1.6435 4.1066,-2.4653 6.9461,-2.4653 1.8779,0 3.5543,0.3758 5.0358,1.1275 1.475,0.7517 2.6381,1.7965 3.4958,3.1343 v 0 h 12.8722 c -1.644,-4.5103 -4.3731,-8.0777 -8.1873,-10.7023 -3.8077,-2.6182 -8.3561,-3.9242 -13.6388,-3.9242 -4.3795,0 -8.2457,0.9301 -11.5986,2.7966 -3.3528,1.8666 -5.9649,4.5294 -7.8428,7.9885 -1.8779,3.4528 -2.8135,7.4916 -2.8135,12.1165 0,4.7969 0.9811,9.0142 2.937,12.6644 1.9623,3.6502 4.7044,6.4787 8.2327,8.4854 3.5218,2.0067 7.5894,3.0132 12.1898,3.0132 z m -0.6823,-10.3647 c -2.7225,0 -4.9838,-0.7708 -6.7772,-2.2997 -1.7868,-1.5353 -2.911,-3.612 -3.3658,-6.2302 v 0 h 20.4615 c -0.4548,2.6182 -1.5919,4.6949 -3.4113,6.2302 -1.8194,1.5289 -4.1196,2.2997 -6.9072,2.2997 z" /></clipPath><clipPath
       id="clipPath186"
       clipPathUnits="userSpaceOnUse"><path
         id="path184"
         d="M 0,0 H 999 V 471 H 0 Z" /></clipPath><clipPath
       id="clipPath196"
       clipPathUnits="userSpaceOnUse"><path
         style="clip-rule:evenodd"
         id="path194"
         d="m 608.4043,242.6833 29.6754,-39.3755 h 13.041 v 60.6908 h -12.7876 v -39.5411 l -29.7599,39.5411 h -12.9631 v -60.5252 h 12.7942 z" /></clipPath><clipPath
       id="clipPath202"
       clipPathUnits="userSpaceOnUse"><path
         id="path200"
         d="M 0,0 H 999 V 471 H 0 Z" /></clipPath><clipPath
       id="clipPath212"
       clipPathUnits="userSpaceOnUse"><path
         style="clip-rule:evenodd"
         id="path210"
         d="m 731.4872,322.9336 c 3.9672,0 5.9442,-2.1301 5.9442,-6.397 v -27.5381 h 13.2632 l 0.0786,27.7851 c 0,5.5223 -1.3486,9.7692 -4.0588,12.7474 -2.7037,2.9782 -6.5989,4.4673 -11.6921,4.4673 h -19.2859 v -11.0647 z" /></clipPath><clipPath
       id="clipPath218"
       clipPathUnits="userSpaceOnUse"><path
         id="path216"
         d="M 0,0 H 999 V 471 H 0 Z" /></clipPath><clipPath
       id="clipPath228"
       clipPathUnits="userSpaceOnUse"><path
         style="clip-rule:evenodd"
         id="path226"
         d="m 761.0728,322.9336 v -33.9351 h 14.7267 v 44.9998 h -20.0211 v -11.0647 z" /></clipPath><clipPath
       id="clipPath234"
       clipPathUnits="userSpaceOnUse"><path
         id="path232"
         d="M 0,0 H 999 V 471 H 0 Z" /></clipPath><clipPath
       id="clipPath244"
       clipPathUnits="userSpaceOnUse"><path
         style="clip-rule:evenodd"
         id="path242"
         d="m 785.81,300.0631 v -11.0646 h 9.4203 c 5.0315,0 8.8881,1.3355 11.5766,4.0132 2.6886,2.6777 4.0294,6.5039 4.0294,11.4786 v 29.508 h -24.1831 v -11.0647 h 10.1874 v -17.5418 c 0,-3.5524 -1.7555,-5.3287 -5.2596,-5.3287 z" /></clipPath><clipPath
       id="clipPath250"
       clipPathUnits="userSpaceOnUse"><path
         id="path248"
         d="M 0,0 H 999 V 471 H 0 Z" /></clipPath><clipPath
       id="clipPath260"
       clipPathUnits="userSpaceOnUse"><path
         style="clip-rule:evenodd"
         id="path258"
         d="m 600.3263,294.2256 c -2.5088,-0.8975 -5.7515,-1.4321 -9.7214,-1.6037 V 279.027 c 8.06,-0.2904 15.0725,1.6433 21.0574,5.8009 5.985,4.1577 8.9741,12.4137 8.9741,24.7679 v 19.4025 h -12.2568 v -20.8742 c 0,-3.9795 -0.7139,-7.068 -2.1418,-9.2657 -1.4345,-2.191 -3.4028,-3.7353 -5.9115,-4.6328" /></clipPath><clipPath
       id="clipPath266"
       clipPathUnits="userSpaceOnUse"><path
         id="path264"
         d="M 0,0 H 999 V 471 H 0 Z" /></clipPath><clipPath
       id="clipPath276"
       clipPathUnits="userSpaceOnUse"><path
         style="clip-rule:evenodd"
         id="path274"
         d="m 645.6379,338.9982 c 3.2146,0 6.0951,-0.9953 8.6347,-2.9861 2.5463,-1.9841 4.5914,-4.8499 6.1419,-8.591 1.5505,-3.741 2.4661,-8.0899 2.7602,-13.0601 v 0 h 11.1409 c 2.6867,0 4.8654,0.7282 6.5362,2.1912 1.6641,1.463 2.4996,3.6541 2.4996,6.5735 0,3.0395 -0.4077,6.9542 -1.2298,11.7507 v 0 h 12.1902 c 0.9357,-3.741 1.4035,-7.5421 1.4035,-11.3967 0,-6.7806 -1.8846,-12.2718 -5.6607,-16.4805 -3.7693,-4.2086 -9.2228,-6.313 -16.3538,-6.313 v 0 h -11.9296 c -2.1052,-7.0144 -6.3424,-12.4522 -12.7182,-16.3068 -6.3691,-3.8545 -14.1751,-5.6382 -23.4113,-5.351 v 0 13.7683 c 6.4292,-0.1202 11.836,0.5946 16.2202,2.1444 4.3842,1.5499 7.5186,3.7277 9.3899,6.5334 v 0 l -1.4903,0.1737 c -5.1528,0.5278 -9.1561,1.3428 -12.0232,2.4584 -2.8604,1.1089 -4.9055,2.6722 -6.1352,4.6896 -1.223,2.0175 -1.8445,4.7498 -1.8445,8.1969 0,3.7944 0.7351,7.3885 2.1987,10.7821 1.457,3.387 3.4018,6.1059 5.8278,8.1501 2.426,2.0442 5.0458,3.0729 7.8528,3.0729 z m -0.1804,-13.3273 c -1.3968,0 -2.7001,-0.6747 -3.8964,-2.0175 -1.2029,-1.3428 -1.8044,-2.779 -1.8044,-4.2955 0,-1.2826 0.4678,-2.131 1.4034,-2.5452 1.3501,-0.6413 3.2214,-1.2092 5.6139,-1.7035 2.3993,-0.501 4.5045,-0.7482 6.3157,-0.7482 -0.1136,1.9306 -0.5547,3.7677 -1.3166,5.5247 -0.7552,1.7502 -1.6909,3.1531 -2.8003,4.2086 -1.1161,1.0488 -2.2856,1.5766 -3.5153,1.5766 z" /></clipPath><clipPath
       id="clipPath282"
       clipPathUnits="userSpaceOnUse"><path
         id="path280"
         d="M 0,0 H 999 V 471 H 0 Z" /></clipPath><clipPath
       id="clipPath292"
       clipPathUnits="userSpaceOnUse"><path
         style="clip-rule:evenodd"
         id="path290"
         d="m 695.6364,349.4982 c 0,-4.1457 -3.3635,-7.5 -7.5042,-7.5 -4.1481,0 -7.5116,3.3543 -7.5116,7.5 0,4.1457 3.3635,7.5 7.5116,7.5 4.1407,0 7.5042,-3.3543 7.5042,-7.5" /></clipPath><clipPath
       id="clipPath298"
       clipPathUnits="userSpaceOnUse"><path
         id="path296"
         d="M 0,0 H 999 V 471 H 0 Z" /></clipPath></defs><g
     transform="matrix(1.3333333,0,0,-1.3333333,0,628)"
     id="g10"><g
       id="g12" /><g
       id="g14"><g
         clip-path="url(#clipPath20)"
         id="g16"><g
           clip-path="url(#clipPath26)"
           id="g22"><path
             id="path28"
             style="fill:#231e20;fill-opacity:1;fill-rule:nonzero;stroke:none"
             d="M 12,464.4755 H 583.5943 V 3.524502 H 12 Z" /></g></g></g><g
       id="g30"><g
         clip-path="url(#clipPath36)"
         id="g32"><g
           clip-path="url(#clipPath42)"
           id="g38"><path
             id="path44"
             style="fill:#231e20;fill-opacity:1;fill-rule:nonzero;stroke:none"
             d="M 592.6101,96.99955 H 969 V 25.99989 H 592.6101 Z" /></g></g></g><g
       id="g46"><g
         clip-path="url(#clipPath52)"
         id="g48"><g
           clip-path="url(#clipPath58)"
           id="g54"><path
             id="path60"
             style="fill:#231e20;fill-opacity:1;fill-rule:nonzero;stroke:none"
             d="m 793.9983,163.7 h 49.8696 v -51.4638 h -49.8696 z" /></g></g></g><g
       id="g62"><g
         clip-path="url(#clipPath68)"
         id="g64"><g
           clip-path="url(#clipPath74)"
           id="g70"><path
             id="path76"
             style="fill:#231e20;fill-opacity:1;fill-rule:nonzero;stroke:none"
             d="m 742.3479,163.7 h 47.7322 v -52.7006 h -47.7322 z" /></g></g></g><g
       id="g78"><g
         clip-path="url(#clipPath84)"
         id="g80"><g
           clip-path="url(#clipPath90)"
           id="g86"><path
             id="path92"
             style="fill:#231e20;fill-opacity:1;fill-rule:nonzero;stroke:none"
             d="m 689.4985,181.9991 h 53.2908 v -70.9997 h -53.2908 z" /></g></g></g><g
       id="g94"><g
         clip-path="url(#clipPath100)"
         id="g96"><g
           clip-path="url(#clipPath106)"
           id="g102"><path
             id="path108"
             style="fill:#231e20;fill-opacity:1;fill-rule:nonzero;stroke:none"
             d="m 654.5241,163.3656 h 34.5621 v -51.1294 h -34.5621 z" /></g></g></g><g
       id="g110"><g
         clip-path="url(#clipPath116)"
         id="g112"><g
           clip-path="url(#clipPath122)"
           id="g118"><path
             id="path124"
             style="fill:#231e20;fill-opacity:1;fill-rule:nonzero;stroke:none"
             d="m 592.6101,178.1878 h 56.7967 v -67.1884 h -56.7967 z" /></g></g></g><g
       id="g126"><g
         clip-path="url(#clipPath132)"
         id="g128"><g
           clip-path="url(#clipPath138)"
           id="g134"><path
             id="path140"
             style="fill:#231e20;fill-opacity:1;fill-rule:nonzero;stroke:none"
             d="m 809.6233,251.1172 h 54.2656 v -50.6438 h -54.2656 z" /></g></g></g><g
       id="g142"><g
         clip-path="url(#clipPath148)"
         id="g144"><g
           clip-path="url(#clipPath154)"
           id="g150"><path
             id="path156"
             style="fill:#231e20;fill-opacity:1;fill-rule:nonzero;stroke:none"
             d="m 761.4422,252.3722 h 51.621 v -53.0646 h -51.621 z" /></g></g></g><g
       id="g158"><g
         clip-path="url(#clipPath164)"
         id="g160"><g
           clip-path="url(#clipPath170)"
           id="g166"><path
             id="path172"
             style="fill:#231e20;fill-opacity:1;fill-rule:nonzero;stroke:none"
             d="m 710.3696,251.9517 h 53.6678 v -70.9526 h -53.6678 z" /></g></g></g><g
       id="g174"><g
         clip-path="url(#clipPath180)"
         id="g176"><g
           clip-path="url(#clipPath186)"
           id="g182"><path
             id="path188"
             style="fill:#231e20;fill-opacity:1;fill-rule:nonzero;stroke:none"
             d="M 657.5036,252.3722 H 709.118 V 199.3076 H 657.5036 Z" /></g></g></g><g
       id="g190"><g
         clip-path="url(#clipPath196)"
         id="g192"><g
           clip-path="url(#clipPath202)"
           id="g198"><path
             id="path204"
             style="fill:#231e20;fill-opacity:1;fill-rule:nonzero;stroke:none"
             d="m 592.6101,266.9986 h 61.5106 v -66.6908 h -61.5106 z" /></g></g></g><g
       id="g206"><g
         clip-path="url(#clipPath212)"
         id="g208"><g
           clip-path="url(#clipPath218)"
           id="g214"><path
             id="path220"
             style="fill:#231e20;fill-opacity:1;fill-rule:nonzero;stroke:none"
             d="m 712.7364,336.9983 h 41.0368 v -50.9998 h -41.0368 z" /></g></g></g><g
       id="g222"><g
         clip-path="url(#clipPath228)"
         id="g224"><g
           clip-path="url(#clipPath234)"
           id="g230"><path
             id="path236"
             style="fill:#231e20;fill-opacity:1;fill-rule:nonzero;stroke:none"
             d="m 752.7784,336.9983 h 26.0211 v -50.9998 h -26.0211 z" /></g></g></g><g
       id="g238"><g
         clip-path="url(#clipPath244)"
         id="g240"><g
           clip-path="url(#clipPath250)"
           id="g246"><path
             id="path252"
             style="fill:#231e20;fill-opacity:1;fill-rule:nonzero;stroke:none"
             d="m 782.81,336.9983 h 31.0263 V 285.9985 H 782.81 Z" /></g></g></g><g
       id="g254"><g
         clip-path="url(#clipPath260)"
         id="g256"><g
           clip-path="url(#clipPath266)"
           id="g262"><path
             id="path268"
             style="fill:#231e20;fill-opacity:1;fill-rule:nonzero;stroke:none"
             d="m 587.6049,331.9983 h 36.0315 v -56.2617 h -36.0315 z" /></g></g></g><g
       id="g270"><g
         clip-path="url(#clipPath276)"
         id="g272"><g
           clip-path="url(#clipPath282)"
           id="g278"><path
             id="path284"
             style="fill:#231e20;fill-opacity:1;fill-rule:nonzero;stroke:none"
             d="m 622.6417,341.9982 h 76.0736 v -66.257 h -76.0736 z" /></g></g></g><g
       id="g286"><g
         clip-path="url(#clipPath292)"
         id="g288"><g
           clip-path="url(#clipPath298)"
           id="g294"><path
             id="path300"
             style="fill:#231e20;fill-opacity:1;fill-rule:nonzero;stroke:none"
             d="m 677.6206,359.9982 h 21.0158 v -21 h -21.0158 z" /></g></g></g></g></svg>