<svg width="21" height="26" viewBox="0 0 21 26" fill="none" xmlns="http://www.w3.org/2000/svg">
<path d="M10.425 0C16.1742 0 20.8516 4.67732 20.8516 10.4266C20.8516 12.7989 20.0741 15.0331 18.6033 16.8876C16.6988 19.2889 11.1605 24.9903 10.9257 25.2318L10.4251 25.7468L9.92432 25.2318C9.68939 24.9902 4.14943 19.2875 2.24468 16.8855C0.775148 15.0324 -0.00158882 12.799 -0.00158882 10.4266C-0.00158882 4.67732 4.67573 0 10.425 0Z" fill="white"/>
<path d="M10.4219 4.13672C13.8251 4.13672 16.5938 6.90537 16.5938 10.3086C16.5938 13.7118 13.825 16.4804 10.4219 16.4804C7.01878 16.4804 4.25006 13.7117 4.25006 10.3086C4.25006 6.90544 7.01871 4.13672 10.4219 4.13672ZM10.4219 15.0837C13.0549 15.0837 15.197 12.9415 15.197 10.3086C15.197 7.67554 13.0549 5.53348 10.4219 5.53348C7.78895 5.53348 5.64688 7.67561 5.64681 10.3086C5.64681 12.9416 7.78888 15.0837 10.4219 15.0837Z" fill="#FF5100"/>
</svg>
